<?xml version="1.0" encoding="utf-8"?>
<!-- Generator: Adobe Illustrator 23.0.0, SVG Export Plug-In . SVG Version: 6.00 Build 0)  -->
<svg version="1.1" id="Ebene_1" xmlns="http://www.w3.org/2000/svg" xmlns:xlink="http://www.w3.org/1999/xlink" x="0px" y="0px"
	 viewBox="0 0 200 300" style="enable-background:new 0 0 200 300;" xml:space="preserve">
<style type="text/css">
	.st0{fill:#FF0000;}
</style>
<g>
	<path d="M138.57,137.83c10.29,0,19.86,2.57,28.71,7.71s15.86,12.14,21,21s7.71,18.43,7.71,28.71v18c0,5.71-2,10.57-6,14.57
		s-8.86,6-14.57,6H24.57c-5.71,0-10.57-2-14.57-6s-6-8.86-6-14.57v-18c0-10.29,2.57-19.86,7.71-28.71c5.14-8.86,12.14-15.86,21-21
		s18.43-7.71,28.71-7.71h7.29c10,4.57,20.43,6.86,31.29,6.86s21.29-2.29,31.29-6.86H138.57z M100,124.12
		c-10,0-19.21-2.43-27.64-7.29c-8.43-4.86-15.07-11.5-19.93-19.93c-4.86-8.43-7.29-17.64-7.29-27.64s2.43-19.21,7.29-27.64
		c4.86-8.43,11.5-15.07,19.93-19.93C80.79,16.83,90,14.4,100,14.4s19.21,2.43,27.64,7.29c8.43,4.86,15.07,11.5,19.93,19.93
		c4.86,8.43,7.29,17.64,7.29,27.64s-2.43,19.21-7.29,27.64c-4.86,8.43-11.5,15.07-19.93,19.93C119.21,121.69,110,124.12,100,124.12z
		"/>
</g>
<g>
	<path class="st0" d="M5.13,277.69v-32.35h4.56l10.37,16.37c2.4,3.79,4.27,7.2,5.81,10.51l0.1-0.05c-0.38-4.32-0.48-8.26-0.48-13.3
		v-13.54h3.94v32.35h-4.22l-10.27-16.42c-2.26-3.6-4.42-7.3-6.05-10.8l-0.14,0.05c0.24,4.08,0.34,7.97,0.34,13.34v13.83H5.13z"/>
	<path class="st0" d="M57.59,265.88c0,8.59-5.95,12.34-11.57,12.34c-6.29,0-11.14-4.61-11.14-11.95c0-7.78,5.09-12.34,11.52-12.34
		C53.08,253.93,57.59,258.78,57.59,265.88z M39.16,266.12c0,5.09,2.93,8.93,7.06,8.93c4.03,0,7.06-3.79,7.06-9.02
		c0-3.94-1.97-8.93-6.96-8.93C41.32,257.1,39.16,261.71,39.16,266.12z"/>
	<path class="st0" d="M78.47,267.52l-3.36,10.18h-4.32l10.99-32.35h5.04l11.04,32.35H93.4l-3.46-10.18H78.47z M89.08,264.25
		l-3.17-9.31c-0.72-2.11-1.2-4.03-1.68-5.9h-0.1c-0.48,1.92-1.01,3.89-1.63,5.86l-3.17,9.36H89.08z"/>
	<path class="st0" d="M103.1,254.46l4.56,13.06c0.77,2.11,1.39,4.03,1.87,5.95h0.14c0.53-1.92,1.2-3.84,1.97-5.95l4.51-13.06h4.42
		l-9.12,23.23h-4.03l-8.83-23.23H103.1z"/>
	<path class="st0" d="M137.23,277.69l-0.34-2.93h-0.14c-1.3,1.82-3.79,3.46-7.1,3.46c-4.7,0-7.1-3.31-7.1-6.67
		c0-5.62,4.99-8.69,13.97-8.64v-0.48c0-1.92-0.53-5.38-5.28-5.38c-2.16,0-4.42,0.67-6.05,1.73l-0.96-2.78
		c1.92-1.25,4.71-2.06,7.63-2.06c7.1,0,8.83,4.85,8.83,9.5v8.69c0,2.02,0.1,3.98,0.38,5.57H137.23z M136.6,265.84
		c-4.61-0.1-9.84,0.72-9.84,5.23c0,2.74,1.82,4.03,3.98,4.03c3.02,0,4.95-1.92,5.62-3.89c0.14-0.43,0.24-0.91,0.24-1.34V265.84z"/>
	<path class="st0" d="M152.39,247.79v6.67h6.05v3.22h-6.05v12.53c0,2.88,0.82,4.51,3.17,4.51c1.1,0,1.92-0.14,2.45-0.29l0.19,3.17
		c-0.82,0.34-2.11,0.58-3.75,0.58c-1.97,0-3.55-0.62-4.56-1.78c-1.2-1.25-1.63-3.31-1.63-6.05v-12.67h-3.6v-3.22h3.6v-5.57
		L152.39,247.79z"/>
	<path class="st0" d="M176.06,277.69l-0.34-2.93h-0.14c-1.3,1.82-3.79,3.46-7.11,3.46c-4.7,0-7.1-3.31-7.1-6.67
		c0-5.62,4.99-8.69,13.97-8.64v-0.48c0-1.92-0.53-5.38-5.28-5.38c-2.16,0-4.42,0.67-6.05,1.73l-0.96-2.78
		c1.92-1.25,4.7-2.06,7.63-2.06c7.1,0,8.83,4.85,8.83,9.5v8.69c0,2.02,0.1,3.98,0.38,5.57H176.06z M175.43,265.84
		c-4.61-0.1-9.84,0.72-9.84,5.23c0,2.74,1.82,4.03,3.98,4.03c3.02,0,4.94-1.92,5.62-3.89c0.14-0.43,0.24-0.91,0.24-1.34V265.84z"/>
	<path class="st0" d="M186.33,261.71c0-2.74-0.05-5.09-0.19-7.25h3.7l0.14,4.56h0.19c1.06-3.12,3.6-5.09,6.43-5.09
		c0.48,0,0.82,0.05,1.2,0.14v3.98c-0.43-0.1-0.86-0.14-1.44-0.14c-2.98,0-5.09,2.26-5.66,5.42c-0.1,0.58-0.19,1.25-0.19,1.97v12.38
		h-4.18V261.71z"/>
</g>
<g>
</g>
<g>
</g>
<g>
</g>
<g>
</g>
<g>
</g>
<g>
</g>
<g>
</g>
<g>
</g>
<g>
</g>
<g>
</g>
<g>
</g>
<g>
</g>
<g>
</g>
<g>
</g>
<g>
</g>
</svg>
